<svg width="200" height="200" viewBox="0 0 200 200" fill="none" xmlns="http://www.w3.org/2000/svg">
<path d="M13.334 96.5335C13.334 57.3126 13.334 37.7022 25.5183 25.5179C37.7027 13.3335 57.3131 13.3335 96.534 13.3335H103.467C142.688 13.3335 162.299 13.3335 174.483 25.5179C186.667 37.7022 186.667 57.3126 186.667 96.5335V103.467C186.667 142.688 186.667 162.298 174.483 174.482C162.299 186.667 142.688 186.667 103.467 186.667H96.534C57.3131 186.667 37.7027 186.667 25.5183 174.482C13.334 162.298 13.334 142.688 13.334 103.467V96.5335Z" fill="#6949FF"/>
<path d="M46.6191 110.589C46.6191 134.447 65.9597 153.787 89.8175 153.787H109.954C133.811 153.787 153.152 134.447 153.152 110.589V110.589C153.152 86.731 133.811 67.3904 109.954 67.3904H89.8175C65.9597 67.3904 46.6191 86.731 46.6191 110.589V110.589Z" fill="#673AB3"/>
<path d="M88.2276 106.385C89.5267 111.552 95.3798 113.909 100.27 114.172C104.262 114.391 114.268 112.187 113.552 106.516C113.436 105.553 112.582 104.494 111.458 104.918C109.538 105.64 108.801 107.487 107.064 108.559C105.167 109.742 102.868 110.172 100.656 110.15C96.657 110.099 92.4094 108.654 89.8404 105.443C89.2055 104.648 88.0086 105.523 88.2276 106.385Z" fill="#133441"/>
<path d="M34.0884 93.3352C34.5992 105.027 44.4957 114.091 56.2021 113.58C67.9011 113.077 76.9803 103.195 76.4694 91.5033C75.9658 79.8188 66.0693 70.7544 54.3629 71.2579C42.6566 71.7688 33.5848 81.6507 34.0884 93.3352Z" fill="white"/>
<path d="M64.7272 100.626C63.4136 102.115 61.3555 102.436 60.1221 101.356C58.8887 100.268 58.947 98.1882 60.2534 96.7067C61.567 95.2178 63.6251 94.8967 64.8585 95.9768C66.0919 97.0643 66.0336 99.1443 64.7272 100.626ZM53.4807 90.9264C51.2182 93.4881 47.6567 94.0501 45.5256 92.1744C43.3945 90.3061 43.4966 86.7081 45.7591 84.1391C48.0142 81.5774 51.5758 81.0154 53.7142 82.8838C55.8453 84.7594 55.7431 88.3575 53.4807 90.9264ZM69.8652 91.7876C69.5149 83.7377 62.6983 77.4977 54.6337 77.848C46.5691 78.191 40.3219 85.0003 40.6722 93.0502C41.0226 101.1 47.8391 107.348 55.9036 106.997C63.9609 106.647 70.2156 99.8376 69.8652 91.7876" fill="#133441"/>
<path d="M125.332 93.3352C125.843 105.027 135.74 114.091 147.446 113.58C159.145 113.077 168.224 103.195 167.713 91.5033C167.21 79.8188 157.313 70.7544 145.607 71.2579C133.901 71.7688 124.829 81.6507 125.332 93.3352Z" fill="white"/>
<path d="M156.949 100.1C155.643 101.582 153.578 101.91 152.344 100.83C151.111 99.7427 151.177 97.6627 152.483 96.1739C153.789 94.6923 155.847 94.3639 157.081 95.4514C158.314 96.5315 158.256 98.6188 156.949 100.1V100.1ZM144.922 90.0726C142.36 92.3277 138.755 92.4445 136.872 90.3134C134.996 88.1896 135.551 84.6354 138.113 82.3729C140.682 80.1104 144.28 80.001 146.162 82.1247C148.045 84.2485 147.491 87.8101 144.922 90.0726ZM161.109 91.7876C160.759 83.7377 153.943 77.4977 145.878 77.848C137.821 78.191 131.566 85.0003 131.916 93.0502C132.259 101.1 139.083 107.348 147.148 106.997C155.205 106.647 161.46 99.8376 161.109 91.7876" fill="#133441"/>
<path d="M131.098 52.5234C130.609 56.2455 137.141 58.4204 144.461 59.2305C151.022 59.9603 157.35 61.2521 158.853 56.4937C161.955 46.714 132.587 41.3279 131.098 52.5234Z" fill="#133441"/>
<path d="M42.9277 56.4057C44.402 61.1642 50.7369 59.9162 57.298 59.2375C64.6327 58.4784 71.1793 56.34 70.7122 52.6179C69.3037 41.4151 39.8989 46.6042 42.9277 56.4057Z" fill="#133441"/>
<path d="M169.332 119.193C169.332 121.915 165.209 124.119 160.115 124.119C155.028 124.119 150.904 121.915 150.904 119.193C150.904 116.471 155.028 114.267 160.115 114.267C165.209 114.267 169.332 116.471 169.332 119.193Z" fill="#A592FF"/>
<path d="M49.0941 119.193C49.0941 121.915 44.9707 124.119 39.8765 124.119C34.7896 124.119 30.666 121.915 30.666 119.193C30.666 116.471 34.7896 114.267 39.8765 114.267C44.9707 114.267 49.0941 116.471 49.0941 119.193Z" fill="#A592FF"/>
</svg>
